<?xml version="1.0" encoding="utf-8"?>
<!-- Generator: Adobe Illustrator 19.2.1, SVG Export Plug-In . SVG Version: 6.00 Build 0)  -->
<svg version="1.1" id="Layer_1" xmlns="http://www.w3.org/2000/svg" xmlns:xlink="http://www.w3.org/1999/xlink" x="0px" y="0px"
	 viewBox="0 0 108.9 53.3" style="enable-background:new 0 0 108.9 53.3;" xml:space="preserve">
<style type="text/css">
	.st0{opacity:0.5;}
	.st1{fill:#CF0A2C;}
	.st2{fill:#051D49;}
	.st3{fill:#FFFFFF;}
</style>
<path class="st0" d="M88,51.4H71.8c-3,0-5.6-0.1-7.7-0.4c-2.6-0.3-4.9-1.2-6.8-2.5c-1-0.7-1.8-1.5-2.5-2.4C54,47.2,53,48,52.1,48.6
	c-2.8,1.9-6.6,2.8-11.8,2.8H24.2c-3,0-5.6-0.1-7.7-0.4c-2.6-0.3-4.9-1.2-6.8-2.5c-2-1.4-3.4-3.3-4.2-5.7c-0.7-2-0.8-4.1-0.8-6.3
	c0-0.3,0-7.7,0-7.7H22v-2.9H4.9v-6.7c0-2.5,0.4-4.7,1.1-6.6c0.8-2.1,2.2-3.9,3.9-5.2c1.6-1.2,3.7-2.1,6-2.6c2.1-0.4,4.5-0.7,7.3-0.7
	h15.7c2.6,0,4.8,0.2,6.7,0.5c2.2,0.4,4,1,5.5,1.9c1.6,1,2.8,2.2,3.7,3.8c0.7-1.1,1.7-2.1,2.8-2.9c1.6-1.2,3.7-2.1,6-2.6
	c2.1-0.4,4.5-0.6,7.3-0.6h15.7c2.6,0,4.8,0.2,6.7,0.5c2.2,0.4,4,1,5.5,1.9c1.8,1.1,3.1,2.5,3.9,4.3c0.7,1.6,1.1,3.4,1.1,5.5v4.4
	c0,1.4-0.1,2.7-0.4,3.7c-0.2,0.9-0.5,1.8-1,2.6c0.7,0.8,1.3,1.8,1.7,2.8c0.4,1.2,0.6,2.5,0.6,4v4.7c0,5.5-2.7,8.5-4.9,10
	C97,50.5,93.1,51.4,88,51.4z M71.7,36.4L71.7,36.4L71.7,36.4z M24.1,36.4L24.1,36.4L24.1,36.4z M85.4,21.4L85.4,21.4L85.4,21.4z
	 M37.8,21.4L37.8,21.4L37.8,21.4z"/>
<path class="st1" d="M88,50.2H71.8c-3,0-5.6-0.1-7.7-0.4c-2.6-0.3-4.9-1.2-6.8-2.5c-1-0.7-1.8-1.5-2.5-2.4C54,46,53,46.8,52.1,47.4
	c-2.8,1.9-6.6,2.8-11.8,2.8H24.2c-3,0-5.6-0.1-7.7-0.4c-2.6-0.3-4.9-1.2-6.8-2.5c-2-1.4-3.4-3.3-4.2-5.7c-0.7-2-0.8-4.1-0.8-6.3
	c0-0.3,0-7.7,0-7.7H22v-2.9H4.9V18c0-2.5,0.4-4.7,1.1-6.6c0.8-2.1,2.2-3.9,3.9-5.2c1.6-1.2,3.7-2.1,6-2.6c2.1-0.4,4.5-0.7,7.3-0.7
	h15.7c2.6,0,4.8,0.2,6.7,0.5c2.2,0.4,4,1,5.5,1.9c1.6,1,2.8,2.2,3.7,3.8C55.5,8,56.5,7,57.6,6.2c1.6-1.2,3.7-2.1,6-2.6
	C65.7,3.2,68.1,3,70.9,3h15.7c2.6,0,4.8,0.2,6.7,0.5c2.2,0.4,4,1,5.5,1.9c1.8,1.1,3.1,2.5,3.9,4.3c0.7,1.6,1.1,3.4,1.1,5.5v4.4
	c0,1.4-0.1,2.7-0.4,3.7c-0.2,0.9-0.5,1.8-1,2.6c0.7,0.8,1.3,1.8,1.7,2.8c0.4,1.2,0.6,2.5,0.6,4v4.7c0,5.5-2.7,8.5-4.9,10
	C97,49.3,93.1,50.2,88,50.2z M71.7,35.2L71.7,35.2L71.7,35.2z M24.1,35.2L24.1,35.2L24.1,35.2z M85.4,20.2L85.4,20.2L85.4,20.2z
	 M37.8,20.2L37.8,20.2L37.8,20.2z"/>
<path class="st2" d="M52.2,27.4c-0.5-0.4-1-0.8-1.7-1.1c0.5-0.3,0.9-0.7,1.2-1.1c0.6-0.7,1-1.5,1.2-2.5c0.2-0.9,0.3-1.9,0.3-3.1
	v-4.4c0-1.7-0.3-3.1-0.8-4.3c-0.6-1.2-1.5-2.3-2.8-3c-1.2-0.7-2.7-1.2-4.5-1.5C43.4,6.1,41.3,6,38.9,6H23.2c-2.5,0-4.8,0.2-6.7,0.6
	c-2,0.4-3.6,1.1-4.9,2.1s-2.4,2.3-3,3.9C8,14,7.7,15.9,7.7,18v3.8h13.5V20c0-1.8,0.4-2.2,0.5-2.3c0.2-0.1,0.7-0.5,2.4-0.5h12.2
	c1.8,0,2.6,0.3,2.9,0.5c0.4,0.3,0.5,1,0.5,1.5c0,1.3-0.4,1.7-1.7,1.7H24.9v11.3h12.7c1.7,0,2.3,0.3,2.6,0.5c0.3,0.3,0.5,0.8,0.5,1.6
	c0,0.6-0.1,1-0.4,1.2c-0.2,0.1-0.7,0.4-1.9,0.4H24.7c-0.9,0-1.7,0-2.3-0.1c-0.5-0.1-0.8-0.2-1-0.4c-0.2-0.1-0.2-0.2-0.2-0.2v-0.8
	c0-0.4,0-0.8,0-1.3v-2.6H7.7c0,0,0,4.5,0,4.8c0,2.1,0,3.9,0.5,5.4c0.6,1.8,1.7,3.3,3.2,4.3s3.3,1.7,5.5,2c2,0.2,4.5,0.4,7.3,0.4
	h16.1c4.6,0,7.9-0.7,10.2-2.3c2.4-1.6,3.7-4.2,3.7-7.6v-4.7c0-1.1-0.2-2.1-0.5-3C53.4,28.8,52.9,28,52.2,27.4z M52.9,37.4
	c0,3-1,5.1-3.1,6.5c-2,1.4-5.2,2.1-9.5,2.1H24.2c-2.8,0-5.2-0.1-7.2-0.4c-2-0.2-3.6-0.8-4.9-1.7c-1.2-0.9-2.1-2.1-2.7-3.6
	c-0.5-1.6-0.4-3.6-0.4-6c0-0.4,0-0.8,0-1.3c0-0.4,0-0.9,0-1.3h10.8c0,0.3,0,1.1,0,1.3c0,0.9,0,1.6,0,2.1c0,0.6,0.3,1,0.7,1.3
	c0.4,0.3,1,0.5,1.6,0.6c0.7,0.1,1.5,0.2,2.5,0.2h13.7c1.3,0,2.2-0.2,2.7-0.7c0.6-0.5,0.9-1.2,0.9-2.3c0-1.3-0.3-2.1-1-2.7
	c-0.7-0.5-1.8-0.8-3.4-0.8H26.2v-8.6H38c2,0,3-1,3-3c0-1.3-0.4-2.2-1.1-2.6c-0.7-0.5-1.9-0.7-3.6-0.7H24.1c-1.6,0-2.7,0.3-3.3,0.8
	c-0.6,0.6-0.9,1.7-0.9,3.3v0.5H9c0-0.4,0-2,0-2.4c0-2,0.3-3.7,0.8-5.1c0.6-1.4,1.4-2.5,2.6-3.4C13.5,8.6,15,8,16.8,7.7
	s3.9-0.6,6.4-0.6h15.7c2.4,0,4.4,0.1,6,0.4s3,0.7,4,1.4c1,0.6,1.8,1.4,2.3,2.4s0.7,2.3,0.7,3.8v4.4c0,1.1-0.1,2-0.3,2.8
	s-0.5,1.4-0.9,2c-0.5,0.5-1.1,1-1.8,1.3c-0.8,0.3-1.7,0.6-2.9,0.8c1.3,0.2,2.3,0.4,3.2,0.7c0.9,0.3,1.6,0.7,2.1,1.2s0.9,1.1,1.2,1.8
	c0.3,0.7,0.4,1.6,0.4,2.5C52.9,32.6,52.9,37.4,52.9,37.4z M101.4,29.7c-0.3-0.9-0.9-1.7-1.6-2.3c-0.5-0.4-1-0.8-1.7-1.1
	c0.5-0.3,0.9-0.7,1.2-1.1c0.6-0.7,1-1.5,1.2-2.5c0.2-0.9,0.3-1.9,0.3-3.1v-4.4c0-1.7-0.3-3.1-0.8-4.3c-0.6-1.2-1.5-2.3-2.8-3
	c-1.2-0.7-2.7-1.2-4.5-1.5C91,6,88.9,5.8,86.5,5.8H70.8c-2.5,0-4.8,0.2-6.7,0.6c-2,0.4-3.6,1.1-4.9,2.1c-1.3,1-2.4,2.3-3,3.9
	c-0.6,1.5-0.9,3.4-0.9,5.6v3.8h13.5V20c0-1.8,0.4-2.2,0.5-2.3c0.2-0.1,0.7-0.5,2.4-0.5h12.2c1.8,0,2.6,0.3,2.9,0.5
	c0.4,0.3,0.5,1,0.5,1.5c0,1.3-0.4,1.7-1.7,1.7H72.5v11.3h12.7c1.7,0,2.3,0.3,2.6,0.5c0.3,0.3,0.5,0.8,0.5,1.6c0,0.6-0.1,1-0.4,1.2
	c-0.2,0.1-0.7,0.4-1.9,0.4H72.3c-0.9,0-1.7,0-2.3-0.1c-0.5-0.1-0.8-0.2-1-0.4c-0.2-0.1-0.2-0.2-0.2-0.2v-0.8c0-0.4,0-0.8,0-1.3v-2.6
	H55.4l-0.1,1.2c0,0.3,0,0.6,0,0.9c0,0.2,0,0.3,0,0.5c0,0.3,0,0.6,0,0.9c0,0.1,0,0.3,0,0.4c0,0.3,0,0.7,0,1c0,2.1,0,3.8,0.5,5.4
	c0.6,1.8,1.7,3.3,3.2,4.3s3.3,1.7,5.5,2c2,0.2,4.5,0.4,7.3,0.4H88c4.6,0,7.9-0.7,10.2-2.3c2.4-1.6,3.7-4.2,3.7-7.6v-4.7
	C101.8,31.6,101.7,30.6,101.4,29.7z M100.5,37.4c0,3-1,5.1-3.1,6.5c-2,1.4-5.2,2.1-9.5,2.1H71.8c-2.8,0-5.2-0.1-7.2-0.4
	c-2-0.2-3.6-0.8-4.9-1.7c-1.2-0.9-2.1-2.1-2.7-3.6c-0.5-1.5-0.4-3.5-0.4-5.9c0-0.4,0-0.8,0-1.3c0-0.4,0-0.9,0-1.3h10.8
	c0,0.3,0,1.1,0,1.3c0,0.9,0,1.6,0,2.1c0,0.6,0.3,1,0.7,1.3c0.4,0.3,1,0.5,1.6,0.6c0.7,0.1,1.5,0.2,2.5,0.2h13.6
	c1.3,0,2.2-0.2,2.7-0.7c0.6-0.5,0.9-1.2,0.9-2.3c0-1.3-0.3-2.1-1-2.7c-0.7-0.5-1.8-0.8-3.4-0.8H73.8v-8.6h11.8c2,0,3-1,3-3
	c0-1.3-0.4-2.2-1.1-2.6c-0.7-0.5-1.9-0.7-3.6-0.7H71.7c-1.6,0-2.7,0.3-3.3,0.8c-0.6,0.6-0.9,1.7-0.9,3.3v0.5H56.6c0-0.4,0-2.1,0-2.4
	c0-2,0.3-3.7,0.8-5.1c0.6-1.4,1.4-2.5,2.6-3.4c1.1-0.9,2.6-1.5,4.4-1.8c1.8-0.4,3.9-0.6,6.4-0.6h15.7c2.4,0,4.4,0.1,6,0.4
	s3,0.7,4,1.4c1,0.6,1.8,1.4,2.3,2.4s0.7,2.3,0.7,3.8v4.4c0,1.1-0.1,2-0.3,2.8c-0.2,0.8-0.5,1.4-0.9,2c-0.5,0.5-1.1,1-1.8,1.3
	c-0.8,0.3-1.7,0.6-2.9,0.8c1.3,0.2,2.3,0.4,3.2,0.7c0.9,0.3,1.6,0.7,2.1,1.2s0.9,1.1,1.2,1.8c0.3,0.7,0.4,1.6,0.4,2.5L100.5,37.4
	L100.5,37.4z"/>
<path class="st3" d="M19.8,31.8c0,0.3,0,1.1,0,1.3c0,0.9,0,1.6,0,2.1c0,0.6,0.3,1,0.7,1.3c0.4,0.3,1,0.5,1.6,0.6
	c0.7,0.1,1.5,0.2,2.5,0.2h13.7c1.3,0,2.2-0.2,2.7-0.7c0.6-0.5,0.9-1.2,0.9-2.3c0-1.3-0.3-2.1-1-2.7c-0.7-0.5-1.8-0.8-3.4-0.8H26.2
	v-8.6H38c2,0,3-1,3-3c0-1.3-0.4-2.2-1.1-2.6c-0.7-0.5-1.9-0.7-3.6-0.7H24.1c-1.6,0-2.7,0.3-3.3,0.8c-0.6,0.6-0.9,1.7-0.9,3.3v0.5H9
	C9,20,9,18.4,9,18c0-2,0.3-3.7,0.8-5.1c0.6-1.4,1.4-2.5,2.6-3.4C13.5,8.6,15,8,16.8,7.7s3.9-0.6,6.4-0.6h15.7c2.4,0,4.4,0.1,6,0.4
	s3,0.7,4,1.4c1,0.6,1.8,1.4,2.3,2.4s0.7,2.3,0.7,3.8v4.4c0,1.1-0.1,2-0.3,2.8s-0.5,1.4-0.9,2c-0.5,0.5-1.1,1-1.8,1.3
	c-0.8,0.3-1.7,0.6-2.9,0.8c1.3,0.2,2.3,0.4,3.2,0.7c0.9,0.3,1.6,0.7,2.1,1.2s0.9,1.1,1.2,1.8c0.3,0.7,0.4,1.6,0.4,2.5v4.7
	c0,3-1,5.1-3.1,6.5c-2,1.4-5.2,2.1-9.5,2.1H24.2c-2.8,0-5.2-0.1-7.2-0.4c-2-0.2-3.6-0.8-4.9-1.7c-1.2-0.9-2.1-2.1-2.7-3.6
	C8.9,38.7,9,36.7,9,34.3c0-0.4,0-0.8,0-1.3c0-0.4,0-0.9,0-1.3L19.8,31.8L19.8,31.8z M67.5,31.8c0,0.3,0,1.1,0,1.3c0,0.9,0,1.6,0,2.1
	c0,0.6,0.3,1,0.7,1.3c0.4,0.3,1,0.5,1.6,0.6c0.7,0.1,1.5,0.2,2.5,0.2h13.6c1.3,0,2.2-0.2,2.7-0.7c0.6-0.5,0.9-1.2,0.9-2.3
	c0-1.3-0.3-2.1-1-2.7c-0.7-0.5-1.8-0.8-3.4-0.8H73.8v-8.6h11.8c2,0,3-1,3-3c0-1.3-0.4-2.2-1.1-2.6c-0.7-0.5-1.9-0.7-3.6-0.7H71.7
	c-1.6,0-2.7,0.3-3.3,0.8c-0.6,0.6-0.9,1.7-0.9,3.3v0.5H56.6c0-0.4,0-2.1,0-2.4c0-2,0.3-3.7,0.8-5.1c0.6-1.4,1.4-2.5,2.6-3.4
	c1.1-0.9,2.6-1.5,4.4-1.8c1.8-0.4,3.9-0.6,6.4-0.6h15.7c2.4,0,4.4,0.1,6,0.4s3,0.7,4,1.4c1,0.6,1.8,1.4,2.3,2.4s0.7,2.3,0.7,3.8v4.4
	c0,1.1-0.1,2-0.3,2.8c-0.2,0.8-0.5,1.4-0.9,2c-0.5,0.5-1.1,1-1.8,1.3c-0.8,0.3-1.7,0.6-2.9,0.8c1.3,0.2,2.3,0.4,3.2,0.7
	c0.9,0.3,1.6,0.7,2.1,1.2s0.9,1.1,1.2,1.8c0.3,0.7,0.4,1.6,0.4,2.5v4.7c0,3-1,5.1-3.1,6.5c-2,1.4-5.2,2.1-9.5,2.1H71.8
	c-2.8,0-5.2-0.1-7.2-0.4c-2-0.2-3.6-0.8-4.9-1.7c-1.2-0.9-2.1-2.1-2.7-3.6c-0.5-1.5-0.4-3.5-0.4-5.9c0-0.4,0-0.8,0-1.3
	c0-0.4,0-0.9,0-1.3L67.5,31.8L67.5,31.8z"/>
</svg>
