<?xml version="1.0" encoding="UTF-8" standalone="no"?>
<svg width="50px" height="59px" viewBox="0 0 50 59" version="1.1" xmlns="http://www.w3.org/2000/svg" xmlns:xlink="http://www.w3.org/1999/xlink">
    <!-- Generator: Sketch 3.8.3 (29802) - http://www.bohemiancoding.com/sketch -->
    <title>Group 10</title>
    <desc>Created with Sketch.</desc>
    <defs>
        <polygon id="path-1" points="9.41905169e-06 23.7865604 25.1388932 23.7865604 25.1388932 3.56493159e-05 9.41905169e-06 3.56493159e-05"></polygon>
        <polygon id="path-3" points="22.9496732 0 45.8993464 13.25 45.8993464 39.75 22.9496732 53 1.59872116e-14 39.75 8.8817842e-16 13.25"></polygon>
        <mask id="mask-4" maskContentUnits="userSpaceOnUse" maskUnits="objectBoundingBox" x="-2" y="-2" width="49.8993464" height="57">
            <rect x="-2" y="-2" width="49.8993464" height="57" fill="white"></rect>
            <use xlink:href="#path-3" fill="black"></use>
        </mask>
    </defs>
    <g id="Page-1" stroke="none" stroke-width="1" fill="none" fill-rule="evenodd">
        <g id="Desktop-HD" transform="translate(-975.000000, -1308.000000)">
            <g id="Group-10" transform="translate(977.000000, 1311.000000)">
                <g id="Group-6" transform="translate(10.000000, 14.000000)">
                    <g id="Page-1" transform="translate(0.574434, 0.061224)">
                        <mask id="mask-2" fill="white">
                            <use xlink:href="#path-1"></use>
                        </mask>
                        <g id="Clip-2"></g>
                        <path d="M23.7514669,3.56493159e-05 L1.38743573,3.56493159e-05 C0.621101687,3.56493159e-05 9.41905169e-06,0.587714622 9.41905169e-06,1.31282171 L9.41905169e-06,22.4737209 C9.41905169e-06,23.1987389 0.621101687,23.7865961 1.38743573,23.7865961 L13.4275269,23.7865961 L13.4275269,14.5751693 L10.1513924,14.5751693 L10.1513924,10.9852832 L13.4275269,10.9852832 L13.4275269,8.3378759 C13.4275269,5.26561786 15.4106141,3.59268458 18.3071608,3.59268458 C19.6946813,3.59268458 20.8871333,3.69036371 21.2346021,3.73403412 L21.2346021,6.94478976 L19.2257068,6.94568099 C17.6504646,6.94568099 17.3453815,7.65394377 17.3453815,8.69329958 L17.3453815,10.9852832 L21.1023586,10.9852832 L20.6132273,14.5751693 L17.3453815,14.5751693 L17.3453815,23.7865961 L23.7514669,23.7865961 C24.5177068,23.7865961 25.1388932,23.1987389 25.1388932,22.4737209 L25.1388932,1.31282171 C25.1388932,0.587714622 24.5177068,3.56493159e-05 23.7514669,3.56493159e-05" id="Fill-1" fill="#FEFEFE" mask="url(#mask-2)"></path>
                    </g>
                </g>
                <use id="Polygon-9-Copy-2" stroke="#FFFFFF" mask="url(#mask-4)" stroke-width="4" xlink:href="#path-3"></use>
            </g>
        </g>
    </g>
</svg>