<?xml version="1.0" encoding="utf-8"?>
<!-- Generator: Adobe Illustrator 19.2.1, SVG Export Plug-In . SVG Version: 6.00 Build 0)  -->
<svg version="1.1" id="Layer_1" xmlns="http://www.w3.org/2000/svg" xmlns:xlink="http://www.w3.org/1999/xlink" x="0px" y="0px"
	 viewBox="0 0 113.4 196.4" style="enable-background:new 0 0 113.4 196.4;" xml:space="preserve">
<style type="text/css">
	
		.st0{opacity:0.1;clip-path:url(#SVGID_2_);fill:none;stroke:#939393;stroke-width:2;stroke-miterlimit:10;enable-background:new    ;}
	
		.st1{opacity:0.1;clip-path:url(#SVGID_4_);fill:none;stroke:#939393;stroke-width:2;stroke-miterlimit:10;enable-background:new    ;}
	
		.st2{opacity:0.1;clip-path:url(#SVGID_6_);fill:none;stroke:#939393;stroke-width:2;stroke-miterlimit:10;enable-background:new    ;}
	
		.st3{opacity:0.1;clip-path:url(#SVGID_8_);fill:none;stroke:#939393;stroke-width:2;stroke-miterlimit:10;enable-background:new    ;}
	
		.st4{opacity:0.1;clip-path:url(#SVGID_10_);fill:none;stroke:#939393;stroke-width:2;stroke-miterlimit:10;enable-background:new    ;}
	
		.st5{opacity:0.1;clip-path:url(#SVGID_12_);fill:none;stroke:#939393;stroke-width:2;stroke-miterlimit:10;enable-background:new    ;}
	
		.st6{opacity:0.1;clip-path:url(#SVGID_14_);fill:none;stroke:#939393;stroke-width:2;stroke-miterlimit:10;enable-background:new    ;}
	
		.st7{opacity:0.1;clip-path:url(#SVGID_16_);fill:none;stroke:#939393;stroke-width:2;stroke-miterlimit:10;enable-background:new    ;}
	
		.st8{opacity:0.1;clip-path:url(#SVGID_18_);fill:none;stroke:#939393;stroke-width:2;stroke-miterlimit:10;enable-background:new    ;}
	
		.st9{opacity:0.1;clip-path:url(#SVGID_20_);fill:none;stroke:#939393;stroke-width:2;stroke-miterlimit:10;enable-background:new    ;}
</style>
<g>
	<g>
		<defs>
			<rect id="SVGID_1_" y="0" width="113.4" height="196.4"/>
		</defs>
		<clipPath id="SVGID_2_">
			<use xlink:href="#SVGID_1_"  style="overflow:visible;"/>
		</clipPath>
		<polygon class="st0" points="85,147.3 56.7,98.2 85,49.1 141.7,49.1 170.1,98.2 141.7,147.3 		"/>
	</g>
	<g>
		<defs>
			<rect id="SVGID_3_" y="0" width="113.4" height="196.4"/>
		</defs>
		<clipPath id="SVGID_4_">
			<use xlink:href="#SVGID_3_"  style="overflow:visible;"/>
		</clipPath>
		<polygon class="st1" points="-10,196.4 -28.3,147.3 -10,98.2 56.7,98.2 85,147.3 56.7,196.4 		"/>
	</g>
	<g>
		<defs>
			<rect id="SVGID_5_" y="0" width="113.4" height="196.4"/>
		</defs>
		<clipPath id="SVGID_6_">
			<use xlink:href="#SVGID_5_"  style="overflow:visible;"/>
		</clipPath>
		<polyline class="st2" points="-10,0 56.7,0 85,49.1 56.7,98.2 -10,98.2 		"/>
	</g>
	<g>
		<defs>
			<rect id="SVGID_7_" y="0" width="113.4" height="196.4"/>
		</defs>
		<clipPath id="SVGID_8_">
			<use xlink:href="#SVGID_7_"  style="overflow:visible;"/>
		</clipPath>
		<polygon class="st3" points="85,245.5 56.7,196.4 85,147.3 141.7,147.3 170.1,196.4 141.7,245.5 		"/>
	</g>
	<g>
		<defs>
			<rect id="SVGID_9_" y="0" width="113.4" height="196.4"/>
		</defs>
		<clipPath id="SVGID_10_">
			<use xlink:href="#SVGID_9_"  style="overflow:visible;"/>
		</clipPath>
		<polygon class="st4" points="85,49.1 56.7,0 85,-49.1 141.7,-49.1 170.1,0 141.7,49.1 		"/>
	</g>
	<g>
		<defs>
			<rect id="SVGID_11_" y="0" width="113.4" height="196.4"/>
		</defs>
		<clipPath id="SVGID_12_">
			<use xlink:href="#SVGID_11_"  style="overflow:visible;"/>
		</clipPath>
		<polygon class="st5" points="-28.3,147.3 -56.7,98.2 -28.3,49.1 28.3,49.1 56.7,98.2 28.3,147.3 		"/>
	</g>
	<g>
		<defs>
			<rect id="SVGID_13_" y="0" width="113.4" height="196.4"/>
		</defs>
		<clipPath id="SVGID_14_">
			<use xlink:href="#SVGID_13_"  style="overflow:visible;"/>
		</clipPath>
		<polygon class="st6" points="56.7,196.4 28.3,147.3 56.7,98.2 123.4,98.2 141.7,147.3 123.4,196.4 		"/>
	</g>
	<g>
		<defs>
			<rect id="SVGID_15_" y="0" width="113.4" height="196.4"/>
		</defs>
		<clipPath id="SVGID_16_">
			<use xlink:href="#SVGID_15_"  style="overflow:visible;"/>
		</clipPath>
		<polygon class="st7" points="56.7,98.2 28.3,49.1 56.7,0 123.4,0 141.7,49.1 123.4,98.2 		"/>
	</g>
	<g>
		<defs>
			<rect id="SVGID_17_" y="0" width="113.4" height="196.4"/>
		</defs>
		<clipPath id="SVGID_18_">
			<use xlink:href="#SVGID_17_"  style="overflow:visible;"/>
		</clipPath>
		<polygon class="st8" points="-28.3,49.1 -56.7,0 -28.3,-49.1 28.3,-49.1 56.7,0 28.3,49.1 		"/>
	</g>
	<g>
		<defs>
			<rect id="SVGID_19_" y="0" width="113.4" height="196.4"/>
		</defs>
		<clipPath id="SVGID_20_">
			<use xlink:href="#SVGID_19_"  style="overflow:visible;"/>
		</clipPath>
		<polygon class="st9" points="-28.3,245.5 -56.7,196.4 -28.3,147.3 28.3,147.3 56.7,196.4 28.3,245.5 		"/>
	</g>
</g>
</svg>
