<?xml version="1.0" encoding="UTF-8" standalone="no"?>
<svg width="50px" height="59px" viewBox="0 0 50 59" version="1.1" xmlns="http://www.w3.org/2000/svg" xmlns:xlink="http://www.w3.org/1999/xlink">
    <!-- Generator: Sketch 3.8.3 (29802) - http://www.bohemiancoding.com/sketch -->
    <title>Group 9</title>
    <desc>Created with Sketch.</desc>
    <defs>
        <polygon id="path-1" points="0 25.7172009 27.5937082 25.7172009 27.5937082 0.00811316458 0 0.00811316458"></polygon>
        <polygon id="path-3" points="22.9496732 0 45.8993464 13.25 45.8993464 39.75 22.9496732 53 1.59872116e-14 39.75 8.8817842e-16 13.25"></polygon>
        <mask id="mask-4" maskContentUnits="userSpaceOnUse" maskUnits="objectBoundingBox" x="-2" y="-2" width="49.8993464" height="57">
            <rect x="-2" y="-2" width="49.8993464" height="57" fill="white"></rect>
            <use xlink:href="#path-3" fill="black"></use>
        </mask>
    </defs>
    <g id="Page-1" stroke="none" stroke-width="1" fill="none" fill-rule="evenodd">
        <g id="Desktop-HD" transform="translate(-893.000000, -1308.000000)">
            <g id="Group-9" transform="translate(895.000000, 1311.000000)">
                <g id="Group-4" transform="translate(9.000000, 13.000000)">
                    <g id="Page-1" transform="translate(0.431304, 0.979592)">
                        <g id="Group-3" transform="translate(0.000000, 0.042913)">
                            <mask id="mask-2" fill="white">
                                <use xlink:href="#path-1"></use>
                            </mask>
                            <g id="Clip-2"></g>
                            <path d="M13.7968541,0.00811316458 C10.0498261,0.00811316458 9.5799826,0.0229107604 8.10845618,0.0854688722 C6.63988715,0.147873905 5.63699937,0.365194459 4.75936303,0.682934558 C3.8520979,1.01144118 3.08268055,1.45098081 2.31567293,2.16560263 C1.54866532,2.88027548 1.07690498,3.59714246 0.724316972,4.44244236 C0.383229973,5.26008606 0.150033371,6.19452872 0.0829989317,7.56274505 C0.0158549592,8.93381883 -2.73833494e-05,9.37157254 -2.73833494e-05,12.8626826 C-2.73833494e-05,16.3537416 0.0158549592,16.7914953 0.0829989317,18.1625691 C0.150033371,19.5307854 0.383229973,20.465228 0.724316972,21.2828717 C1.07690498,22.1281716 1.54866532,22.8450386 2.31567293,23.5597115 C3.08268055,24.2743333 3.8520979,24.7138729 4.75936303,25.0423795 C5.63699937,25.3601196 6.63988715,25.5774402 8.10845618,25.6398452 C9.5799826,25.7024033 10.0498261,25.7172009 13.7968541,25.7172009 C17.5438821,25.7172009 18.0137256,25.7024033 19.485252,25.6398452 C20.953821,25.5774402 21.9567088,25.3601196 22.8343452,25.0423795 C23.7416103,24.7138729 24.5110276,24.2743333 25.2780353,23.5597115 C26.0450429,22.8450386 26.5168032,22.1281716 26.8693912,21.2828717 C27.2104782,20.465228 27.4436748,19.5307854 27.5107093,18.1625691 C27.5778532,16.7914953 27.5937356,16.3537416 27.5937356,12.8626826 C27.5937356,9.37157254 27.5778532,8.93381883 27.5107093,7.56274505 C27.4436748,6.19452872 27.2104782,5.26008606 26.8693912,4.44244236 C26.5168032,3.59714246 26.0450429,2.88027548 25.2780353,2.16560263 C24.5110276,1.45098081 23.7416103,1.01144118 22.8343452,0.682934558 C21.9567088,0.365194459 20.953821,0.147873905 19.485252,0.0854688722 C18.0137256,0.0229107604 17.5438821,0.00811316458 13.7968541,0.00811316458 M13.7968541,2.32424306 C17.4807908,2.32424306 17.9171171,2.33735679 19.3719397,2.39920054 C20.7171194,2.45634987 21.4477071,2.66576137 21.9338711,2.84180173 C22.5778179,3.07499143 23.0374201,3.35354341 23.5202433,3.80339032 C24.0030117,4.25318621 24.3020379,4.68139802 24.5523217,5.28141501 C24.7412121,5.73437452 24.9659746,6.4150129 25.0273681,7.66831824 C25.0937453,9.02377801 25.1077656,9.43035471 25.1077656,12.8626826 C25.1077656,16.2949594 25.0937453,16.7015361 25.0273681,18.0569959 C24.9659746,19.3103012 24.7412121,19.9909396 24.5523217,20.4438991 C24.3020379,21.0439161 24.0030117,21.4721279 23.5202433,21.9219238 C23.0374201,22.3717707 22.5778179,22.6503227 21.9338711,22.8835124 C21.4477071,23.0595527 20.7171194,23.2689642 19.3719397,23.3261136 C17.9173362,23.3879573 17.4810099,23.401071 13.7968541,23.401071 C10.1126983,23.401071 9.67637199,23.3879573 8.22176848,23.3261136 C6.87658883,23.2689642 6.14600107,23.0595527 5.65983708,22.8835124 C5.01589024,22.6503227 4.55628811,22.3717707 4.07346489,21.9219238 C3.59069644,21.4721279 3.29167027,21.0439161 3.04138646,20.4438991 C2.85249611,19.9909396 2.62773358,19.3103012 2.56634011,18.0569959 C2.49996287,16.7015361 2.4859426,16.2949594 2.4859426,12.8626826 C2.4859426,9.43035471 2.49996287,9.02377801 2.56634011,7.66831824 C2.62773358,6.4150129 2.85249611,5.73437452 3.04138646,5.28141501 C3.29167027,4.68139802 3.59069644,4.25318621 4.07346489,3.80339032 C4.55628811,3.35354341 5.01589024,3.07499143 5.65983708,2.84180173 C6.14600107,2.66576137 6.87658883,2.45634987 8.22171371,2.39920054 C9.67659106,2.33735679 10.1129173,2.32424306 13.7968541,2.32424306" id="Fill-1" fill="#FFFFFF" mask="url(#mask-2)"></path>
                        </g>
                        <path d="M13.7968541,17.1904129 C11.2569389,17.1904129 9.19787535,15.2720322 9.19787535,12.9055905 C9.19787535,10.5390977 11.2569389,8.62071701 13.7968541,8.62071701 C16.3367693,8.62071701 18.3957781,10.5390977 18.3957781,12.9055905 C18.3957781,15.2720322 16.3367693,17.1904129 13.7968541,17.1904129 M13.7968541,6.30458712 C9.88399255,6.30458712 6.71196013,9.25992213 6.71196013,12.9055905 C6.71196013,16.5512078 9.88399255,19.5065428 13.7968541,19.5065428 C17.7097156,19.5065428 20.8817481,16.5512078 20.8817481,12.9055905 C20.8817481,9.25992213 17.7097156,6.30458712 13.7968541,6.30458712" id="Fill-4" fill="#FFFFFF"></path>
                        <path d="M22.8172744,6.04378204 C22.8172744,6.89571535 22.0760071,7.58630384 21.1616771,7.58630384 C20.2472923,7.58630384 19.506025,6.89571535 19.506025,6.04378204 C19.506025,5.19184874 20.2472923,4.50126025 21.1616771,4.50126025 C22.0760071,4.50126025 22.8172744,5.19184874 22.8172744,6.04378204" id="Fill-6" fill="#FFFFFF"></path>
                    </g>
                </g>
                <use id="Polygon-9-Copy" stroke="#FFFFFF" mask="url(#mask-4)" stroke-width="4" xlink:href="#path-3"></use>
            </g>
        </g>
    </g>
</svg>