<?xml version="1.0" encoding="UTF-8" standalone="no"?>
<svg width="27px" height="33px" viewBox="0 0 27 33" version="1.1" xmlns="http://www.w3.org/2000/svg" xmlns:xlink="http://www.w3.org/1999/xlink">
    <!-- Generator: Sketch 3.8.3 (29802) - http://www.bohemiancoding.com/sketch -->
    <title>Page 1</title>
    <desc>Created with Sketch.</desc>
    <defs>
        <polygon id="path-1" points="15.7690742 32.5181097 15.7690742 0.0993508712 0.169717595 0.0993508712 0.169717595 32.5181097"></polygon>
    </defs>
    <g id="Page-1" stroke="none" stroke-width="1" fill="none" fill-rule="evenodd">
        <g id="Desktop-HD" transform="translate(-327.000000, -5336.000000)">
            <g id="Page-1" transform="translate(327.000000, 5336.000000)">
                <path d="M3.79023186,32.8974329 C3.00728846,32.8974329 0.860183589,32.8707646 0.622042299,32.8707646 C0.198467047,32.8707646 9.58315048e-05,32.5439644 9.58315048e-05,32.3762702 L9.58315048e-05,31.0035287 C9.58315048e-05,30.6301719 0.318735586,30.4267693 0.710207284,30.4267693 L3.79023186,30.4267693 C5.6714043,30.4267693 6.062876,29.7162162 6.062876,28.057807 L6.062876,1.09475801 C6.062876,0.757109687 6.38343238,0.452005783 6.73752979,0.452005783 L8.62013971,0.452005783 C8.97615375,0.452005783 9.29479351,0.757109687 9.29479351,1.09475801 L9.29479351,28.057807 C9.29479351,31.3068246 7.69680316,32.8974329 3.79023186,32.8974329" id="Fill-1" fill="#86878A"></path>
                <g id="Group-5" transform="translate(11.020623, 0.353017)">
                    <mask id="mask-2" fill="white">
                        <use xlink:href="#path-1"></use>
                    </mask>
                    <g id="Clip-4"></g>
                    <path d="M5.85971321,13.632856 C6.63355261,13.632856 7.15631347,14.3235209 7.85109188,16.4678363 L12.0049085,28.7637496 C12.1304477,29.1619667 12.2075921,29.3689854 12.3010278,29.3689854 C12.4696913,29.3689854 12.5128154,29.3156487 12.5128154,28.7637496 L12.5051489,0.786851668 C12.5913973,0.340269954 12.8875166,0.0993508712 13.2267602,0.0993508712 L15.0494754,0.0993508712 C15.4730506,0.0993508712 15.76917,0.38140248 15.76917,0.786851668 L15.76917,0.906181194 L15.7370664,30.4596753 C15.7370664,31.921914 14.5473183,32.5181097 13.1908233,32.5181097 L11.3681081,32.5181097 C10.1821932,32.5181097 9.29191856,31.7112793 8.95315419,30.4989998 L4.7993376,18.2048945 C4.67379833,17.8405779 4.67379833,17.8405779 4.54634243,17.8405779 L4.46201071,17.8405779 C4.3345548,17.8405779 4.32688828,17.8762863 4.2070989,18.2048945 L0.169717595,28.244395 L0.169717595,13.632856 L5.85971321,13.632856 Z" id="Fill-3" fill="#86878A" mask="url(#mask-2)"></path>
                </g>
            </g>
        </g>
    </g>
</svg>