<?xml version="1.0" encoding="UTF-8" standalone="no"?>
<svg width="317px" height="68px" viewBox="0 0 317 68" version="1.1" xmlns="http://www.w3.org/2000/svg" xmlns:xlink="http://www.w3.org/1999/xlink">
    <!-- Generator: Sketch 3.8.3 (29802) - http://www.bohemiancoding.com/sketch -->
    <title>Group Copy 3</title>
    <desc>Created with Sketch.</desc>
    <defs>
        <polygon id="path-1" points="158.248711 0 182.497423 14 182.497423 42 158.248711 56 134 42 134 14"></polygon>
    </defs>
    <g id="Page-1" stroke="none" stroke-width="1" fill="none" fill-rule="evenodd">
        <g id="Desktop-HD" transform="translate(-443.000000, -4284.000000)">
            <g id="Group-Copy-3" transform="translate(443.000000, 4290.000000)">
                <g id="Polygon-1">
                    <use stroke="#000000" stroke-width="10" fill="#000000" fill-rule="evenodd" xlink:href="#path-1"></use>
                    <use stroke="#FFFFFF" stroke-width="2" xlink:href="#path-1"></use>
                </g>
                <path d="M164.157715,16.3217773 L168.703613,20.8505859 L168.703613,25.3110352 L166.020508,27.5839844 L168.703613,29.8911133 L168.703613,34.4882812 L164.157715,39 L161.132812,39 L161.132812,29.4296875 L155.869141,29.4296875 L155.869141,25.4819336 L161.132812,25.4819336 L161.132812,16.3217773 L164.157715,16.3217773 Z M154.331055,21.1411133 L154.331055,24.456543 L146.777344,24.456543 L146.777344,20.8505859 L151.306152,16.3217773 L159.936523,16.3217773 L159.936523,21.1411133 L154.331055,21.1411133 Z M146.777344,34.4711914 L146.777344,30.9677734 L154.331055,30.9677734 L154.331055,34.1635742 L159.936523,34.1635742 L159.936523,39 L151.306152,39 L146.777344,34.4711914 Z" id="3" fill="#FFFFFF"></path>
                <polygon id="Page-1" fill="#000000" points="313.42665 34 226.662626 34.0598707 211.225913 34.0817193 204 45.0922558 219.454589 45.0428837 223.283478 39.2087522 316.71812 39.147179"></polygon>
                <polygon id="Page-1-Copy-3" fill="#000000" transform="translate(56.359060, 39.546128) scale(-1, 1) translate(-56.359060, -39.546128) " points="109.42665 34 22.6626261 34.0598707 7.22591288 34.0817193 5.68434189e-14 45.0922558 15.4545893 45.0428837 19.2834776 39.2087522 112.71812 39.147179"></polygon>
            </g>
        </g>
    </g>
</svg>