<?xml version="1.0" encoding="UTF-8" standalone="no"?>
<svg width="50px" height="59px" viewBox="0 0 50 59" version="1.1" xmlns="http://www.w3.org/2000/svg" xmlns:xlink="http://www.w3.org/1999/xlink">
    <!-- Generator: Sketch 3.8.3 (29802) - http://www.bohemiancoding.com/sketch -->
    <title>Group 8</title>
    <desc>Created with Sketch.</desc>
    <defs>
        <polygon id="path-1" points="29.2162941 0 0 0 0 25.3287903 29.2162941 25.3287903"></polygon>
        <polygon id="path-3" points="22.9496732 0 45.8993464 13.25 45.8993464 39.75 22.9496732 53 1.59872116e-14 39.75 8.8817842e-16 13.25"></polygon>
        <mask id="mask-4" maskContentUnits="userSpaceOnUse" maskUnits="objectBoundingBox" x="-2" y="-2" width="49.8993464" height="57">
            <rect x="-2" y="-2" width="49.8993464" height="57" fill="white"></rect>
            <use xlink:href="#path-3" fill="black"></use>
        </mask>
    </defs>
    <g id="Page-1" stroke="none" stroke-width="1" fill="none" fill-rule="evenodd">
        <g id="Desktop-HD" transform="translate(-812.000000, -1308.000000)">
            <g id="Group-8" transform="translate(814.000000, 1311.000000)">
                <g id="Group-2" transform="translate(9.000000, 12.000000)">
                    <g id="Page-1" transform="translate(0.260292, 0.866455)">
                        <mask id="mask-2" fill="white">
                            <use xlink:href="#path-1"></use>
                        </mask>
                        <g id="Clip-2"></g>
                        <path d="M29.2162338,7.07576418 C28.1412614,7.49146766 26.986139,7.77251712 25.7735223,7.89878438 C27.0111458,7.25197921 27.9616185,6.22758372 28.4090695,5.00712454 C27.2509548,5.6061252 25.9682334,6.04102502 24.6027973,6.27548141 C23.5094438,5.25965904 21.9516476,4.62487489 20.2276736,4.62487489 C16.9171561,4.62487489 14.233412,6.9651522 14.233412,9.85150043 C14.233412,10.26124 14.2864179,10.6600768 14.3885825,11.042606 C9.40699013,10.8246435 4.99029523,8.74379651 2.03393413,5.58161723 C1.51798158,6.35357141 1.22238822,7.2514201 1.22238822,8.20928067 C1.22238822,10.0225902 2.28058254,11.6224103 3.88892675,12.5597699 C2.90639408,12.5326527 1.98210377,12.2974509 1.17397759,11.9059758 C1.17355013,11.9277813 1.17344326,11.9496801 1.17344326,11.971672 C1.17344326,14.5040992 3.23960453,16.6166295 5.98169784,17.0968178 C5.47867616,17.2161893 4.94915154,17.2800218 4.40252824,17.2800218 C4.01620502,17.2800218 3.64078222,17.2473135 3.27476368,17.1862765 C4.03757837,19.262837 6.25121572,20.7739438 8.87404577,20.8162504 C6.8226321,22.2180498 4.23816721,23.053557 1.42981653,23.053557 C0.946030868,23.053557 0.468870939,23.0288626 -6.02529803e-05,22.9805922 C2.65269247,24.4635568 5.80333728,25.3287903 9.18834081,25.3287903 C20.213674,25.3287903 26.2426672,17.3645417 26.2426672,10.4575832 C26.2426672,10.2309545 26.2367895,10.0055372 26.2253548,9.78142444 C27.3964004,9.04450826 28.4125961,8.12392215 29.2162338,7.07576418" id="Fill-1" fill="#FFFFFF" mask="url(#mask-2)"></path>
                    </g>
                </g>
                <use id="Polygon-9" stroke="#FFFFFF" mask="url(#mask-4)" stroke-width="4" xlink:href="#path-3"></use>
            </g>
        </g>
    </g>
</svg>